<?xml version="1.0" standalone="no"?>
<!DOCTYPE svg PUBLIC "-//W3C//DTD SVG 20010904//EN"
 "http://www.w3.org/TR/2001/REC-SVG-20010904/DTD/svg10.dtd">
<svg version="1.0" xmlns="http://www.w3.org/2000/svg"
 width="1900.000000pt" height="1900.000000pt" viewBox="0 0 1900.000000 1900.000000"
 preserveAspectRatio="xMidYMid meet">
<metadata>
Created by potrace 1.14, written by Peter Selinger 2001-2017
</metadata>
<g transform="translate(0.000000,1900.000000) scale(0.100000,-0.100000)"
fill="#000000" stroke="none">
<path d="M18202 18751 c-29 -10 -64 -29 -78 -42 -15 -13 -235 -233 -490 -487
l-463 -464 -113 7 c-62 3 -131 8 -153 10 -41 4 -197 14 -295 20 -69 4 -216 14
-295 20 -33 2 -100 7 -150 10 -49 3 -121 8 -160 11 -38 2 -101 6 -140 9 -115
8 -226 15 -295 20 -36 3 -101 7 -145 10 -44 2 -114 7 -155 10 -135 10 -194 14
-285 20 -49 3 -119 7 -155 10 -119 8 -224 15 -300 20 -41 3 -109 8 -150 11
-41 3 -104 7 -140 9 -36 2 -101 6 -145 9 -81 6 -153 11 -300 21 -44 3 -111 7
-150 10 -175 13 -205 15 -290 20 -49 3 -119 7 -155 10 -99 7 -239 17 -300 20
-52 4 -120 8 -305 21 -44 3 -105 7 -135 9 -118 7 -257 16 -300 20 -25 3 -85 7
-135 10 -104 7 -204 13 -290 19 -33 3 -107 7 -165 11 -58 3 -121 8 -140 10
-19 2 -87 7 -150 10 -63 4 -131 8 -150 10 -19 2 -87 6 -150 10 -63 3 -131 8
-150 10 -19 2 -87 6 -150 10 -63 4 -131 8 -150 10 -19 2 -89 6 -155 10 -66 4
-129 9 -140 11 -39 8 -201 5 -250 -5 -95 -18 -183 -55 -270 -114 -54 -37
-8966 -8950 -9010 -9012 -57 -80 -81 -129 -105 -217 -37 -137 -27 -310 25
-433 50 -116 96 -164 1292 -1360 654 -654 1197 -1196 1207 -1204 9 -8 16 -10
15 -5 -3 9 9 96 17 139 3 11 11 54 19 95 8 41 17 84 19 95 30 137 41 185 67
284 104 398 260 812 444 1179 367 731 892 1398 1505 1912 69 58 127 108 130
111 3 3 70 54 150 113 308 231 645 436 970 593 96 47 183 89 193 94 71 38 482
195 612 234 75 23 67 21 85 28 35 14 379 104 435 113 17 3 44 9 60 14 17 5 71
17 120 26 50 9 97 17 105 19 35 6 97 16 125 20 17 2 80 10 140 19 61 8 144 18
185 22 41 3 91 8 110 9 246 24 706 23 965 0 137 -12 173 -16 198 -21 l27 -6 0
-220 0 -220 -62 8 c-35 4 -76 8 -93 9 -16 2 -64 6 -105 10 -134 12 -211 15
-445 15 -249 0 -335 -4 -520 -20 -140 -13 -152 -14 -360 -46 -407 -61 -947
-216 -1310 -376 -38 -17 -88 -39 -110 -48 -279 -123 -632 -324 -904 -515 -69
-48 -129 -91 -135 -96 -6 -5 -72 -57 -146 -115 -386 -306 -758 -693 -1047
-1089 -118 -163 -266 -391 -348 -540 -21 -38 -46 -83 -55 -100 -184 -332 -373
-805 -472 -1175 -57 -218 -109 -456 -123 -565 -4 -28 -8 -57 -10 -65 -2 -8 -7
-35 -10 -60 -3 -25 -8 -56 -10 -70 -2 -14 -7 -52 -10 -85 -3 -33 -8 -76 -11
-96 -5 -37 -4 -37 522 -563 289 -289 527 -526 528 -526 2 0 0 21 -4 48 -16
101 -23 257 -24 497 0 252 10 441 29 555 2 14 9 63 15 110 6 47 15 103 20 125
5 22 11 56 14 75 18 119 92 400 153 580 198 593 538 1172 953 1625 83 89 258
262 335 330 37 33 73 65 79 71 20 19 250 199 301 236 256 183 544 347 820 468
77 33 149 65 160 70 91 40 498 171 535 172 3 0 15 4 28 9 12 5 33 11 45 13 12
2 90 18 172 35 83 16 168 32 190 35 22 4 54 8 70 11 17 2 53 7 80 10 28 3 66
8 85 10 122 14 224 19 450 19 233 1 472 -8 488 -18 4 -2 41 -7 82 -11 41 -4
93 -10 115 -13 l40 -7 3 -224 2 -223 -46 7 c-25 3 -53 8 -62 10 -10 1 -46 6
-82 10 -36 4 -72 9 -80 10 -59 11 -249 19 -435 19 -280 0 -411 -10 -670 -49
-81 -13 -283 -57 -395 -87 -875 -231 -1681 -774 -2226 -1502 -41 -56 -82 -109
-90 -119 -8 -9 -14 -20 -14 -23 0 -3 -13 -23 -30 -44 -16 -21 -30 -40 -30 -43
0 -3 -17 -32 -38 -64 -93 -141 -226 -395 -297 -567 -26 -61 -53 -124 -60 -141
-55 -125 -171 -533 -200 -705 -3 -19 -8 -42 -10 -50 -2 -8 -6 -35 -9 -60 -3
-25 -8 -54 -10 -65 -2 -12 -7 -48 -11 -80 -4 -33 -8 -71 -10 -85 -20 -138 -26
-576 -12 -740 12 -136 29 -277 42 -353 3 -15 10 -55 16 -90 5 -34 26 -128 45
-209 l36 -148 1299 -1299 c715 -715 1296 -1302 1292 -1304 -5 -3 -116 -6 -248
-7 -348 -2 -720 -8 -1045 -15 -272 -5 -385 -8 -795 -20 -320 -9 -774 -27
-1025 -40 -47 -3 -139 -7 -205 -10 -121 -6 -178 -9 -360 -21 -55 -3 -126 -7
-157 -9 -66 -3 -210 -13 -288 -20 -30 -3 -86 -7 -125 -10 -72 -5 -148 -12
-245 -21 -30 -2 -82 -7 -115 -9 -33 -3 -76 -7 -95 -9 -19 -3 -57 -8 -85 -10
-75 -8 -227 -26 -255 -31 -14 -2 -45 -6 -70 -10 -97 -14 -133 -20 -180 -30
-14 -3 -38 -8 -55 -11 -95 -17 -227 -60 -254 -83 -32 -28 -26 -54 16 -78 37
-21 187 -67 248 -77 17 -2 55 -9 85 -15 30 -5 73 -13 95 -16 22 -3 54 -8 70
-11 17 -3 48 -7 70 -9 22 -2 56 -6 75 -9 19 -2 60 -7 90 -11 30 -3 71 -8 90
-10 59 -7 122 -14 195 -20 39 -3 90 -8 115 -11 25 -2 72 -7 105 -9 70 -5 200
-15 265 -20 25 -2 88 -6 140 -10 52 -3 124 -8 160 -10 176 -12 398 -24 540
-30 52 -2 145 -7 205 -10 201 -11 635 -27 1065 -40 1562 -48 3781 -47 5320 0
401 13 451 14 610 21 91 3 197 8 235 9 104 4 339 15 430 20 44 2 130 7 190 10
61 3 137 7 170 10 33 2 107 7 165 10 58 4 125 8 150 10 25 2 90 7 145 10 55 4
116 8 135 10 19 2 71 6 115 10 44 3 100 7 125 10 25 2 74 7 110 10 36 4 81 8
100 10 19 2 64 6 100 10 36 3 76 8 90 10 110 15 136 19 142 17 4 -1 31 3 60 8
29 5 71 12 93 15 22 3 65 10 95 15 30 5 69 12 85 14 57 10 190 48 230 65 116
51 71 106 -130 156 -87 22 -288 58 -390 70 -27 4 -60 8 -73 10 -13 2 -53 7
-90 10 -37 4 -74 8 -82 10 -8 3 -51 7 -95 10 -44 4 -91 8 -105 10 -14 3 -61 7
-105 11 -44 3 -98 8 -120 9 -44 4 -145 12 -240 20 -33 2 -100 7 -150 10 -49 3
-110 8 -135 10 -25 2 -101 7 -170 10 -69 4 -145 8 -170 10 -25 2 -103 7 -175
10 -71 3 -164 8 -205 10 -41 2 -140 7 -220 10 -80 3 -188 7 -240 10 -231 9
-408 16 -580 20 -102 3 -255 7 -340 10 -390 11 -1049 22 -1469 25 l-185 1 490
491 c269 270 480 487 469 483 -129 -47 -371 -115 -465 -131 -14 -3 -50 -9 -80
-14 -180 -31 -293 -38 -530 -35 -136 2 -270 9 -340 19 -785 110 -1463 504
-1947 1131 -42 55 -153 215 -153 221 0 2 -11 21 -23 42 -159 252 -305 625
-363 926 -16 83 -34 202 -39 261 -4 39 -8 81 -11 95 -5 31 -5 414 0 455 3 17
7 61 11 100 4 38 8 72 10 75 2 3 6 28 9 55 22 187 113 501 205 710 279 628
748 1127 1354 1439 69 35 152 74 184 86 32 12 62 25 68 29 30 23 400 132 495
146 25 4 47 8 50 10 3 2 26 6 50 10 25 3 56 8 70 10 135 21 243 27 435 26 94
0 180 -2 192 -5 12 -3 53 -8 90 -11 37 -4 82 -9 98 -11 17 -3 46 -7 65 -10
379 -58 788 -215 1117 -430 63 -41 116 -74 119 -74 2 0 4 2018 4 4485 0 2467
3 4485 7 4485 3 0 23 -17 43 -37 45 -46 317 -304 351 -333 13 -12 47 -43 74
-68 42 -40 153 -140 280 -253 17 -15 73 -64 125 -109 52 -46 125 -110 161
-142 37 -32 80 -68 95 -80 16 -12 31 -25 34 -28 11 -13 253 -213 410 -339 91
-73 174 -140 185 -149 47 -38 429 -325 525 -394 252 -180 528 -358 800 -517
203 -119 168 -98 345 -207 181 -112 387 -252 550 -375 159 -120 172 -131 340
-276 54 -47 257 -246 325 -319 204 -219 415 -525 555 -804 98 -195 224 -526
255 -665 4 -22 18 -78 29 -124 22 -86 65 -310 75 -391 18 -138 16 -124 33
-310 10 -114 10 -717 0 -855 -13 -170 -26 -303 -33 -340 -2 -11 -7 -44 -10
-74 -3 -30 -8 -64 -10 -75 -2 -12 -6 -32 -8 -46 -3 -14 -8 -43 -11 -65 -3 -22
-7 -47 -10 -55 -2 -8 -6 -32 -10 -53 -15 -107 -101 -405 -159 -557 l-26 -65
226 230 c286 290 876 893 1025 1047 63 64 187 191 276 281 211 215 264 299
298 472 6 33 7 218 1 275 -3 19 -7 82 -11 140 -3 58 -8 123 -10 145 -2 22 -6
90 -10 150 -4 61 -8 131 -10 156 -2 26 -7 91 -10 145 -4 55 -8 126 -10 159 -3
33 -7 105 -11 160 -3 55 -7 116 -9 135 -2 19 -7 85 -10 145 -4 61 -9 126 -10
145 -2 19 -6 85 -10 145 -3 61 -8 128 -10 150 -2 22 -7 85 -10 140 -3 55 -8
129 -11 165 -2 36 -7 103 -9 150 -3 47 -7 108 -10 135 -2 28 -7 88 -10 135 -3
47 -7 112 -9 145 -5 60 -15 215 -21 310 -4 66 -16 248 -20 305 -2 25 -6 92
-10 150 -3 58 -8 123 -10 145 -2 22 -6 85 -9 140 -4 55 -8 127 -11 160 -3 33
-8 98 -11 145 -3 47 -7 112 -9 145 -7 127 -16 252 -20 300 -2 28 -7 95 -10
150 -3 55 -8 125 -10 155 -3 30 -7 93 -10 140 -2 47 -7 114 -10 150 -8 105
-15 215 -20 293 -2 40 -6 101 -9 137 -3 36 -8 110 -11 165 -3 55 -8 129 -11
165 -6 79 -11 158 -19 275 -9 141 -13 203 -21 305 -4 52 -7 107 -7 123 0 15
-3 27 -5 27 -3 0 -237 -233 -522 -517 l-517 -518 -6 -108 c-4 -59 -9 -112 -12
-118 -4 -5 -9 -21 -11 -36 -9 -48 -63 -166 -104 -228 -239 -359 -717 -456
-1082 -219 -285 184 -419 555 -318 881 78 255 293 457 561 530 97 26 290 24
392 -5 43 -12 97 -32 119 -43 l40 -21 -110 -108 c-138 -136 -158 -163 -169
-225 -36 -198 129 -347 322 -290 l59 17 1166 1166 c806 807 1172 1179 1185
1207 42 91 19 218 -52 286 -69 66 -165 84 -261 50z"/>
<path d="M12043 8571 c0 -2033 -3 -3736 -7 -3786 -5 -79 -17 -182 -31 -280
-19 -129 -86 -393 -131 -514 -13 -35 -24 -66 -24 -70 0 -3 308 302 685 679
l686 685 -6 80 c-7 87 -28 248 -45 335 -6 30 -13 69 -16 85 -4 24 -33 149 -59
255 -2 8 -14 47 -26 85 -22 68 -22 84 -24 613 l-2 543 35 -58 c56 -92 185
-356 247 -503 112 -267 226 -644 270 -900 9 -52 20 -103 23 -112 6 -14 101 76
441 416 l433 433 -31 99 c-32 99 -85 251 -101 289 -4 11 -36 90 -71 175 -135
331 -394 802 -589 1070 -59 80 -199 267 -217 287 -10 11 -34 41 -53 64 -67 83
-176 204 -280 312 l-105 109 -1 289 c-1 159 2 291 6 294 15 9 368 -329 522
-500 136 -151 138 -153 222 -255 106 -129 98 -119 174 -223 347 -469 629 -990
816 -1502 20 -55 42 -112 49 -128 l12 -27 398 398 398 398 14 90 c32 206 39
323 40 604 0 198 -7 362 -19 425 -2 11 -7 47 -11 80 -4 32 -9 68 -11 79 -2 11
-6 38 -10 60 -3 22 -7 43 -9 46 -2 3 -6 21 -9 41 -21 137 -122 456 -201 639
-43 101 -171 348 -191 371 -8 8 -14 19 -14 22 0 11 -92 152 -101 155 -5 2 -9
8 -9 14 0 9 -119 171 -172 234 -192 230 -388 422 -613 603 -121 97 -107 87
-220 167 -246 174 -468 307 -763 453 -403 201 -871 375 -1248 465 l-51 13 0
-3696z"/>
</g>
</svg>
